<svg width="16" height="16" viewBox="0 0 16 16" fill="none" xmlns="http://www.w3.org/2000/svg">
<mask id="mask0_15_1399" style="mask-type:alpha" maskUnits="userSpaceOnUse" x="0" y="0" width="16" height="16">
<path d="M0.5 0.5H15.5V15.5H0.5V0.5Z" fill="white"/>
</mask>
<g mask="url(#mask0_15_1399)">
<path fill-rule="evenodd" clip-rule="evenodd" d="M11.3844 9.48878C11.1981 9.39565 10.285 8.9469 10.115 8.8844C9.945 8.82253 9.82125 8.7919 9.69688 8.97815C9.57313 9.16315 9.2175 9.5819 9.10938 9.70565C9.00063 9.83003 8.8925 9.84503 8.70688 9.75253C8.52125 9.65878 7.9225 9.46315 7.21313 8.83065C6.66125 8.33815 6.28813 7.73003 6.18 7.54378C6.07188 7.35815 6.16813 7.25753 6.26125 7.16503C6.345 7.0819 6.44688 6.94815 6.54 6.84003C6.63313 6.73128 6.66375 6.65378 6.72563 6.5294C6.78813 6.40565 6.75688 6.29753 6.71 6.2044C6.66375 6.11128 6.2925 5.1969 6.1375 4.82503C5.98688 4.46315 5.83375 4.51253 5.72 4.50628C5.61125 4.50128 5.4875 4.50003 5.36375 4.50003C5.24 4.50003 5.03875 4.54628 4.86875 4.73253C4.69813 4.91815 4.21875 5.36753 4.21875 6.2819C4.21875 7.19565 4.88375 8.07878 4.97688 8.20315C5.07 8.3269 6.28625 10.2031 8.14938 11.0075C8.59313 11.1988 8.93875 11.3132 9.20813 11.3982C9.65313 11.54 10.0581 11.52 10.3781 11.4719C10.7344 11.4188 11.4769 11.0225 11.6319 10.5888C11.7863 10.155 11.7863 9.78315 11.74 9.70565C11.6938 9.62815 11.57 9.5819 11.3838 9.48878H11.3844ZM7.99563 14.1157H7.99313C6.88652 14.1159 5.80023 13.8184 4.84813 13.2544L4.62313 13.1207L2.28438 13.7344L2.90875 11.4544L2.76188 11.2206C2.14321 10.2359 1.81581 9.09614 1.8175 7.93315C1.81875 4.5269 4.59 1.75565 7.99813 1.75565C9.64813 1.75565 11.1994 2.3994 12.3656 3.5669C12.9409 4.13976 13.3968 4.821 13.707 5.57121C14.0173 6.32142 14.1757 7.1257 14.1731 7.93753C14.1719 11.3438 11.4006 14.1157 7.99563 14.1157ZM13.2531 2.68003C12.5645 1.98685 11.7451 1.43724 10.8426 1.06303C9.93997 0.688815 8.97208 0.497452 7.995 0.500026C3.89875 0.500026 0.56375 3.8344 0.5625 7.93253C0.560602 9.23674 0.902734 10.5184 1.55438 11.6481L0.5 15.5L4.44 14.4663C5.52992 15.0601 6.75131 15.3712 7.9925 15.3713H7.99563C12.0919 15.3713 15.4269 12.0369 15.4281 7.93815C15.4311 6.96145 15.2405 5.99384 14.8671 5.0913C14.4938 4.18875 13.9452 3.36919 13.2531 2.68003Z" fill="white"/>
</g>
</svg>
