<svg width="16" height="16" viewBox="0 0 16 16" fill="none" xmlns="http://www.w3.org/2000/svg">
<path d="M7.60521 0.502183C6.33691 0.516716 3.61015 0.714553 2.08503 2.04269C0.950569 3.10969 0.554471 4.68723 0.508046 6.63794C0.469522 8.58162 0.423097 12.2318 4.12972 13.2256V14.7394C4.12972 14.7394 4.10651 15.3451 4.52829 15.4693C5.04786 15.6255 5.3437 15.1595 5.83759 14.6588L6.75869 13.6701C9.2948 13.8702 11.2373 13.4089 11.461 13.3405C11.9756 13.1844 14.8743 12.8328 15.3479 9.18216C15.8339 5.41201 15.1113 3.03656 13.807 1.96205H13.7991C13.4054 1.61795 11.8235 0.523748 8.28925 0.511559C8.28925 0.511559 8.02699 0.494682 7.60521 0.501714V0.502183ZM7.64867 1.56216C8.00872 1.55981 8.22751 1.57435 8.22751 1.57435C11.219 1.58185 12.6468 2.43648 12.9836 2.72433C14.0821 3.61788 14.6481 5.75939 14.2337 8.90697C13.84 11.9589 11.4891 12.1521 11.054 12.2838C10.8688 12.34 9.158 12.7404 7.00267 12.6087C7.00267 12.6087 5.39753 14.4473 4.89574 14.9208C4.81623 15.0038 4.72338 15.0282 4.66411 15.016C4.57916 14.9963 4.55348 14.8965 4.55842 14.7596L4.57373 12.2472C1.43013 11.4221 1.61534 8.30877 1.64893 6.68248C1.68745 5.05618 2.00897 3.72571 2.96612 2.82466C4.25468 1.71874 6.57002 1.56966 7.64769 1.56216H7.64867ZM7.88574 3.18798C7.85987 3.18774 7.8342 3.19235 7.81021 3.20156C7.78623 3.21078 7.7644 3.22441 7.74599 3.24166C7.72758 3.25892 7.71295 3.27947 7.70295 3.30212C7.69294 3.32476 7.68776 3.34907 7.68769 3.37363C7.68769 3.47864 7.77758 3.56162 7.88574 3.56162C8.37543 3.55278 8.86212 3.63605 9.31774 3.80663C9.77336 3.97721 10.1889 4.23173 10.5404 4.5555C11.258 5.21698 11.6077 6.10584 11.621 7.26802C11.621 7.37069 11.7084 7.45601 11.8191 7.45601V7.44851C11.8712 7.44863 11.9213 7.42919 11.9584 7.39441C11.9955 7.35964 12.0166 7.31235 12.0171 7.26286C12.0411 6.71583 11.9476 6.16989 11.7424 5.65821C11.5372 5.14653 11.2245 4.6798 10.8234 4.2864C10.0416 3.56115 9.05082 3.18751 7.88574 3.18751V3.18798ZM5.28246 3.61788C5.14266 3.59849 5.00009 3.62513 4.87846 3.69336H4.86809C4.58571 3.85047 4.33134 4.04905 4.11441 4.28171C3.93414 4.47955 3.83635 4.67973 3.81067 4.87241C3.79536 4.98727 3.80573 5.10213 3.84179 5.21183L3.85463 5.21933C4.05762 5.78565 4.32283 6.3304 4.64682 6.84328C5.06417 7.56381 5.57778 8.23019 6.17491 8.82587L6.19269 8.85024L6.22085 8.86993L6.23863 8.88962L6.25937 8.9065C6.88919 9.47497 7.59291 9.96478 8.35345 10.364C9.22269 10.8131 9.75017 11.0255 10.0667 11.1136V11.1183C10.1596 11.1451 10.2441 11.1572 10.329 11.1572C10.5988 11.1385 10.8542 11.0345 11.0545 10.8619C11.2985 10.6559 11.5054 10.4135 11.6669 10.1442V10.1395C11.8186 9.86849 11.7672 9.61206 11.5484 9.4386C11.1102 9.07504 10.6364 8.75212 10.1334 8.47426C9.79659 8.3008 9.45433 8.40581 9.31555 8.58162L9.01971 8.93557C8.86808 9.11137 8.59249 9.08699 8.59249 9.08699L8.58459 9.09168C6.52952 8.59334 5.98131 6.61825 5.98131 6.61825C5.98131 6.61825 5.95563 6.34962 6.14577 6.21273L6.51619 5.92957C6.6935 5.79268 6.81697 5.46826 6.62682 5.14807C6.33612 4.66996 5.99667 4.22009 5.61336 3.80493C5.52957 3.70706 5.412 3.64047 5.28147 3.61694L5.28246 3.61788ZM8.22751 4.17482C7.96526 4.17482 7.96526 4.55081 8.22998 4.55081C8.55608 4.55583 8.87795 4.6218 9.17718 4.74496C9.47641 4.86811 9.74714 5.04603 9.9739 5.26855C10.1807 5.48515 10.3397 5.73894 10.4413 6.01491C10.543 6.29088 10.5852 6.58341 10.5656 6.87516C10.5665 6.92453 10.5877 6.97161 10.6247 7.00631C10.6617 7.041 10.7116 7.06057 10.7636 7.0608L10.7715 7.07065C10.8239 7.07028 10.8741 7.05036 10.9111 7.01518C10.9482 6.98001 10.9692 6.9324 10.9696 6.88266C10.9874 6.13772 10.7434 5.5128 10.2648 5.01211C9.78375 4.51143 9.11256 4.23061 8.25566 4.17482H8.22751ZM8.55199 5.18557C8.28184 5.17807 8.27147 5.56156 8.53915 5.56906C9.1901 5.60094 9.50619 5.91316 9.54767 6.55543C9.54858 6.60418 9.56955 6.65066 9.6061 6.68492C9.64265 6.71918 9.69188 6.7385 9.74325 6.73873H9.75115C9.77756 6.73766 9.80348 6.7316 9.8274 6.72091C9.85132 6.71023 9.87275 6.69513 9.89045 6.67649C9.90815 6.65786 9.92177 6.63606 9.9305 6.61238C9.93923 6.58869 9.9429 6.5636 9.9413 6.53855C9.89488 5.70126 9.41383 5.22964 8.5599 5.18604H8.55199V5.18557Z" fill="white"/>
</svg>
