<svg width="1230" height="414" viewBox="0 0 1230 414" fill="none" xmlns="http://www.w3.org/2000/svg">
<path d="M23.4731 380.548C23.4731 385.167 19.7911 388.877 15.2799 388.877C10.7686 388.877 7.08662 385.134 7.08662 380.548C7.08662 375.962 10.7686 372.219 15.2799 372.219C19.7911 372.219 23.4731 375.962 23.4731 380.548Z" fill="#D86713"/>
<path d="M26.6907 380.548C26.6907 385.167 23.0087 388.877 18.4975 388.877C13.953 388.877 10.3042 385.134 10.3042 380.548C10.3042 375.962 13.9862 372.219 18.4975 372.219C23.0087 372.219 26.6907 375.962 26.6907 380.548Z" fill="#F1A34F"/>
<path d="M69.9458 411.131C74.4708 411.131 78.139 407.402 78.139 402.802C78.139 398.203 74.4708 394.474 69.9458 394.474C65.4208 394.474 61.7525 398.203 61.7525 402.802C61.7525 407.402 65.4208 411.131 69.9458 411.131Z" fill="#D86713"/>
<path d="M73.1633 411.131C77.6883 411.131 81.3566 407.402 81.3566 402.803C81.3566 398.203 77.6883 394.474 73.1633 394.474C68.6383 394.474 64.9701 398.203 64.9701 402.803C64.9701 407.402 68.6383 411.131 73.1633 411.131Z" fill="#F1A34F"/>
<path d="M8.81151 371.511L17.9004 380.11C18.8292 380.986 19.8906 381.661 21.0516 382.167L82.1858 408.029L93.5635 399.734L8.81151 371.511Z" fill="#D86713"/>
<path d="M137.548 278.313L134.629 276.256C148.03 256.531 173.937 217.687 176.093 211.786C177.453 208.077 177.453 204.975 176.126 202.581C174.003 198.737 169.028 197.692 168.995 197.692L168.795 197.658L155.229 193.41C139.671 187.104 133.037 199.513 132.739 200.052L132.639 200.221L96.3499 255.924L93.3977 253.935L129.654 198.265C129.985 197.624 132.042 194.084 136.056 191.319C140.069 188.588 146.836 186.126 156.456 190.004L169.757 194.185C170.653 194.387 176.425 195.804 179.178 200.794C181.069 204.166 181.135 208.28 179.41 213.034C176.591 220.823 139.141 275.987 137.548 278.313Z" fill="#D86713"/>
<path d="M133.468 264.32L163.521 285.293C163.521 285.293 171.449 293.419 162.36 309.671C154.366 323.968 111.575 405.028 111.575 405.028C111.575 405.028 102.652 421.887 67.9555 400.779L133.468 264.32Z" fill="#D86713"/>
<path d="M141.894 295.408L93.3313 385.909C91.3743 389.585 88.5547 392.484 85.2708 394.541C79.2005 398.351 71.4716 399.161 64.4393 396.16L33.8888 383.111L33.1259 382.773L13.9862 374.58C12.0623 373.771 10.3042 372.691 8.74517 371.478C8.38028 371.174 8.01542 370.904 7.68371 370.567C2.01146 365.476 -0.774942 357.788 0.187018 350.235C0.585071 347.032 1.67972 343.828 3.47096 340.895L55.3173 256.632C60.8568 247.663 71.6707 243.616 81.5888 246.853L87.1947 248.674L88.5215 249.113L89.6493 249.484L108.391 255.553L110.68 256.295L128.758 262.162C131.578 263.072 134.099 264.488 136.255 266.275C136.387 266.377 136.52 266.511 136.686 266.646L137.548 267.422C144.813 274.435 147.068 285.832 141.894 295.408Z" fill="#F1A34F"/>
<path opacity="0.4" d="M85.304 394.575C79.2337 398.385 71.5048 399.194 64.4725 396.193L33.922 383.144L33.1591 382.807L14.0194 374.613C12.0955 373.804 10.3374 372.725 8.77835 371.511C8.41347 371.208 8.0486 370.938 7.71689 370.601C2.04464 365.509 -2.1349 354.045 1.38123 345.379C1.38123 345.379 66.1975 372.557 78.7693 380.548C85.304 384.662 85.304 390.529 85.304 394.575Z" fill="#D86713"/>
<path d="M89.7157 249.517C89.5499 249.551 71.737 252.147 66.6287 259.026C61.3876 266.107 9.83984 352.696 9.34228 353.539C9.30911 353.607 5.1959 362.374 9.67399 372.152L8.81151 371.511C8.44663 371.208 8.08176 370.938 7.75005 370.601C3.83587 360.755 8.08175 353.202 8.28078 352.899C10.4037 349.324 60.3925 265.399 65.6667 258.25C70.2775 252.012 83.181 249.382 87.2942 248.708L88.6211 249.146L89.7157 249.517Z" fill="#D86713"/>
<path d="M110.746 256.328C108.126 256.834 97.8426 259.464 91.5401 269.816C84.143 281.954 36.8411 372.961 36.3767 373.871L36.3435 373.939L36.3103 374.006C36.2771 374.04 33.0596 378.66 34.7181 383.481L33.9552 383.144L33.1922 382.807C31.7659 377.817 34.8508 373.77 35.3152 373.197C36.7747 370.398 83.1478 281.179 90.4786 269.141C95.9187 260.24 104.178 256.8 108.457 255.586L110.746 256.328Z" fill="#D86713"/>
<path d="M137.615 267.489C137.548 267.489 133.9 267.894 130.151 269.715C126.403 271.536 121.759 274.84 118.143 280.775C110.746 292.913 65.1691 384.257 64.7047 385.168L64.6716 385.235L64.6052 385.302C64.572 385.336 61.8852 390.967 63.5437 395.789L61.6198 394.98C60.5583 390.799 63.1125 385.134 63.6101 384.527C65.0696 381.593 109.718 292.138 117.082 280.1C123.981 268.771 134.231 266.68 136.354 266.343C136.487 266.444 136.62 266.579 136.785 266.714L137.615 267.489Z" fill="#D86713"/>
<path d="M137.899 380.009C137.899 380.009 131.364 386.145 132.657 390.529C133.918 394.879 139.822 397.812 140.619 403.14C141.415 408.467 144.599 411.367 147.452 411.367C150.304 411.367 161.085 411.367 161.085 411.367C161.085 411.367 163.208 407.624 158.1 406.478C153.024 405.331 151.101 399.093 151.399 393.26C151.731 387.427 150.935 379.672 150.935 379.672L140.121 377.075L137.899 380.009Z" fill="#233862"/>
<path d="M256.087 411.367H219.864C219.566 411.3 219.3 411.232 219.168 411.165C216.746 409.951 217.509 400.543 217.808 397.644C217.874 397.104 217.907 396.801 217.907 396.801C217.907 396.801 230.645 386.449 232.37 394.373C232.436 394.609 232.502 394.879 232.569 395.115C234.758 402.533 244.643 405.905 250.348 406.815C254.661 407.489 255.788 410.086 256.087 411.367Z" fill="#233862"/>
<path d="M248.789 199.344C248.789 199.344 246.865 223.858 244.577 253.294C241.492 293.284 237.776 342.446 237.412 351.752C236.781 367.904 234.227 393.766 234.227 393.766C234.227 393.766 228.19 399.903 216.116 397.306C216.116 397.306 205.335 360.384 202.283 321.338C202.25 320.697 202.184 320.057 202.151 319.416C199.298 279.662 194.853 195.938 194.853 195.938L248.789 199.344Z" fill="#2B478B"/>
<path d="M248.789 199.344C248.789 199.344 246.865 223.858 244.577 253.294L202.283 321.338C202.25 320.697 202.184 320.057 202.151 319.416C199.298 279.662 194.853 195.938 194.853 195.938L248.789 199.344Z" fill="#233862"/>
<path d="M239.966 202.244C239.966 202.244 205.136 290.958 182.248 332.668C159.36 374.378 152.195 386.011 152.195 386.011C152.195 386.011 139.093 380.683 137.898 377.041C137.898 377.041 146.656 296.555 161.981 276.931C170.638 265.837 180.822 232.557 181.286 220.924C181.751 209.291 184.371 186.261 184.371 186.261L239.966 202.244Z" fill="#2B478B"/>
<path d="M275.193 177.764L277.184 181.81C277.184 181.81 287.301 183.26 284.515 193.983C284.515 193.983 283.022 198.4 280.235 196.984C277.449 195.601 278.809 195.703 274.828 193.814C270.815 191.926 268.526 188.318 269.422 185.014L268.791 181.507L275.193 177.764Z" fill="#FFB27D"/>
<path d="M222.12 65.3125C223.679 56.0061 223.712 50.51 223.712 50.51L206.032 36.0447C206.695 55.9387 194.157 65.5148 194.157 65.5148C194.157 65.5148 217.708 77.2826 231.308 72.9329C231.308 72.8992 227.958 68.5495 222.12 65.3125Z" fill="#FFB27D"/>
<path d="M227.891 50.173C227.891 50.173 205.402 53.9832 203.312 39.7202C201.189 25.4572 196.877 16.3532 211.14 13.3185C225.404 10.2838 228.986 15.3079 230.844 19.8936C232.668 24.4456 233.663 48.8242 227.891 50.173Z" fill="#FFB27D"/>
<path d="M203.444 40.6978C203.444 40.6978 203.909 21.5793 224.375 18.5109C238.407 16.4204 229.915 4.48395 228.29 2.5957C228.29 2.5957 217.575 4.68625 206.596 7.11399C183.575 12.2729 201.023 37.8317 203.444 40.6978Z" fill="#233862"/>
<path d="M272.838 183.362C275.857 180.226 278.079 176.146 278.079 176.146C278.079 176.146 252.538 143.911 250.481 140.539C248.391 137.201 232.9 83.5544 232.9 83.5544L193.692 75.4956C193.692 75.4956 226.432 144.147 231.839 152.509C240.795 166.334 267.597 186.936 267.597 186.936C267.597 186.936 270.483 185.823 272.838 183.362Z" fill="#4A75CB"/>
<path d="M250.315 201.367C249.917 201.704 249.419 201.907 248.889 201.907C243.78 201.839 228.887 204.705 216.282 203.39C205.667 202.345 196.246 199.142 186.129 194.556C184.802 193.949 181.684 192.263 181.784 190.746C181.817 189.094 181.983 186.666 182.182 183.598C182.912 173.01 184.139 154.768 182.912 133.728C182.679 129.816 182.58 125.939 182.58 122.095C182.48 93.6025 187.954 68.3809 199.099 59.8838C200.061 59.1757 205.999 62.2441 211.405 64.9416C216.381 67.4368 219.864 67.3694 224.541 66.4252L230.744 70.9772C236.483 76.3722 242.752 83.7229 245.472 94.8838C247.794 104.359 249.154 121.488 249.917 139.224C250.249 147.249 250.547 155.375 250.614 163.063V163.333C250.68 164.108 250.68 164.917 250.68 165.693C250.912 185.452 250.647 201.098 250.315 201.367Z" fill="#739AF0"/>
<path d="M182.182 183.631C182.912 173.043 184.139 154.802 182.912 133.761C182.679 129.85 182.58 125.972 182.58 122.128C187.224 110.664 191.038 102.335 191.038 102.335H202.781C202.748 102.369 211.372 162.085 182.182 183.631Z" fill="#4A75CB"/>
<path d="M159.36 187.374L157.138 191.285C157.138 191.285 161.516 200.693 151.134 204.2C151.134 204.2 146.689 205.346 146.291 202.21C145.926 199.074 146.556 200.322 145.926 195.871C145.296 191.454 146.987 187.509 150.205 186.43L152.726 183.969L159.36 187.374Z" fill="#FFB27D"/>
<path d="M153.456 188.419C157.668 189.262 162.246 188.925 162.246 188.925C162.246 188.925 174.785 149.542 176.41 145.934C178.035 142.326 213.661 99.7393 213.661 99.7393L198.8 61.9744C198.8 61.9744 160.256 127.422 156.342 136.627C149.873 151.835 147.618 185.89 147.618 185.89C147.618 185.89 150.139 187.779 153.456 188.419Z" fill="#739AF0"/>
<path d="M1075.98 399.852C1075.98 399.852 1088.15 383.715 1091.59 376.358L1101.05 356.075L1113.47 359.612L1097.72 385.463L1081.28 401.6L1075.98 399.852Z" fill="#FFB27D"/>
<path d="M1154.39 3.66589C1157.26 1.79613 1160.66 1.59292 1163.08 1.75551C1162.45 1.02386 1161.26 0.739331 1161.26 0.739331C1162.73 0.495449 1166.06 2.20261 1166.06 2.20261C1186.75 -7.02425 1189.98 28.2573 1189.55 36.468C1189.13 44.6787 1196.5 47.3614 1207.26 53.8243C1227.77 66.1403 1229.6 82.643 1229.6 82.643C1229.42 82.765 1229.28 82.8869 1229.11 83.0088C1228.09 81.0171 1225.99 77.237 1224.23 76.6679C1224.3 76.8305 1226.34 81.8301 1227.07 84.716C1221.01 90.0408 1209.68 101.869 1201.79 110.283C1201.83 108.657 1201.76 106.3 1201.27 105.08L1200.28 111.909C1196.08 116.421 1193.13 119.591 1193.13 119.591C1193.66 112.966 1167.29 78.0093 1153.51 67.5223C1150.14 61.7911 1148.99 51.7106 1148.88 50.8977C1149.44 58.9052 1150.63 63.417 1151.69 65.9371C1140.01 53.4585 1146.81 8.62483 1154.39 3.66589Z" fill="#163560"/>
<path d="M1154.32 67.9694C1154.25 68.0101 1160.94 72.0341 1165.99 70.4489C1170.73 68.945 1173.85 61.7911 1173.78 61.7911C1171.78 61.3439 1171.18 58.1328 1171.22 44.3535L1170.3 44.5568L1155.02 48.0524C1155.02 48.0524 1155.37 53.621 1155.37 58.8645C1155.4 63.3357 1155.16 67.5223 1154.32 67.9694Z" fill="#FFB27D"/>
<path d="M1171.6 9.43771C1171.6 9.43771 1164.06 0.129541 1154.6 8.94994C1154.56 8.94994 1160.1 7.85248 1171.6 9.43771Z" fill="#E37970"/>
<path d="M1155.02 48.0929C1155.02 48.0929 1155.37 53.6616 1155.37 58.905C1163.92 58.6205 1168.45 49.5969 1170.3 44.5566L1155.02 48.0929Z" fill="#D68D5D"/>
<path d="M1171.92 42.6465C1171.92 42.6465 1176.41 34.4358 1177.49 27.4039C1178.26 22.4043 1176.06 3.78796 1159.96 6.47066C1159.96 6.47066 1155.3 6.99907 1150.88 10.4541C1147.37 13.1774 1142.32 19.1119 1147.97 35.33L1149.44 40.8174L1171.92 42.6465Z" fill="#163560"/>
<path d="M1094.07 369.286L1102.17 369.57L1110.94 369.895C1110.94 369.895 1131.21 343.759 1142.57 301.812C1142.85 300.836 1143.13 299.861 1143.41 298.844C1149.62 277.83 1162.52 251.409 1169.32 227.55C1170.41 223.729 1171.39 220.152 1172.23 216.778C1172.51 215.681 1172.79 214.624 1173.04 213.567C1178.05 193.406 1179.49 180.155 1180.82 166.01L1131.77 166.457C1131.8 166.457 1123.88 263.075 1094.07 369.286Z" fill="#80BDCC"/>
<path d="M1135.24 172.473C1135.24 172.473 1156.24 184.829 1181.21 175.725C1181.49 175.603 1179.56 63.8234 1172.48 60.7342C1170.87 63.0917 1166.03 65.4493 1161.71 65.3273C1156.73 65.2054 1155.12 62.7259 1155.4 60.0432C1150.11 63.4576 1145.86 66.7093 1145.86 66.7093C1141.38 75.7736 1135.24 172.473 1135.24 172.473Z" fill="#F1A34F"/>
<path d="M1180.89 136.785C1183.03 140.321 1187.14 161.702 1197.37 164.384C1192.11 149.142 1188.08 142.435 1187.49 137.76C1186.33 129.021 1186.29 119.957 1186.89 111.421C1183.45 104.471 1180.89 99.6742 1180.89 99.6742C1180.61 98.5361 1175.46 80.0011 1173.78 96.585C1172.13 113.21 1178.47 132.883 1180.89 136.785Z" fill="#5F9AA8"/>
<path d="M1152.18 53.052C1152.18 53.052 1172.41 53.4584 1172.44 38.8255C1172.44 24.1926 1175.07 14.3967 1162.17 13.5431C1149.23 12.6895 1146.74 18.2582 1145.69 23.1358C1144.64 28.0134 1146.92 52.5642 1152.18 53.052Z" fill="#FFB27D"/>
<path d="M1152.91 13.1773C1152.91 13.1773 1158.45 30.3304 1166.97 32.8505C1175.49 35.3706 1179.18 32.7285 1179.18 32.7285C1179.18 32.7285 1172.65 26.7128 1171.29 16.2258C1171.29 16.2665 1157.12 5.04792 1152.91 13.1773Z" fill="#163560"/>
<path d="M1154.32 14.6C1154.32 14.6 1150.18 18.4208 1149.16 22.1603C1148.14 25.8998 1147.69 33.5415 1145.76 33.2976C1145.76 33.2976 1141.59 21.6319 1146.29 15.0471C1151.26 8.01517 1154.32 14.6 1154.32 14.6Z" fill="#163560"/>
<path d="M1070.72 77.3182C1070.72 77.3182 1067.88 65.4087 1056.56 67.0752C1055.26 67.5629 1051.47 69.3108 1053.89 73.9852C1055.68 77.4402 1056.45 75.6517 1059.26 80.3261C1062.06 85.0005 1065.11 86.0573 1068.62 85.4883L1070.72 77.3182Z" fill="#FFB27D"/>
<path d="M1167.32 397.454C1168.03 393.064 1169.32 385.463 1169.32 385.463L1169.01 358.514H1183.14L1177.84 384.325C1177.74 385.504 1177.46 390.178 1178.93 395.096C1178.93 395.096 1180.3 402.25 1174.2 402.372C1168.13 402.494 1166.66 401.844 1167.32 397.454Z" fill="#FFB27D"/>
<path d="M1166.76 405.868H1179.42C1180.05 402.047 1178.97 395.096 1178.97 395.096C1172.09 402.819 1167.78 394.893 1167.78 394.893C1166.73 397.942 1166.76 404.73 1166.76 405.868Z" fill="#C45446"/>
<path d="M1070.06 405.949H1085.66C1087.03 404.486 1088.32 401.6 1089.9 397.86C1090.81 395.706 1092.88 394.487 1094.99 393.836V405.949H1098.21L1101.19 393.064C1103.19 388.715 1101.65 384.813 1100.25 381.398C1098.63 381.398 1093.93 382.699 1085.66 393.796C1082.92 397.454 1079.94 398.755 1076.93 398.633C1076.89 398.673 1076.86 398.673 1076.79 398.714C1072.12 401.153 1070.58 404.201 1070.06 405.949Z" fill="#C45446"/>
<path d="M1070.72 77.3183C1070.72 77.3183 1084.01 85.9355 1088.75 88.4149C1091.45 89.8376 1097.69 93.2113 1102.07 95.6094C1104.87 97.1134 1108.17 96.3004 1110.17 93.5771C1117.36 83.8218 1136.12 62.6854 1155.37 60.084C1155.37 60.084 1143.66 93.6177 1143.31 100.406C1142.95 107.194 1141.94 211.413 1141.94 211.413C1141.94 211.413 1142.64 216.209 1134.71 214.217C1126.79 212.226 1124.72 210.234 1124.72 210.234C1124.72 210.234 1132.29 145.93 1130.23 123.575C1129.81 119.185 1130.19 114.226 1131.03 109.104C1119.29 117.396 1105.4 121.054 1105.4 121.054C1105.4 121.054 1095.02 115.811 1080.82 103.739C1076.37 99.9587 1068.55 85.529 1068.55 85.529L1070.72 77.3183Z" fill="#B64C41"/>
<path d="M1102.21 369.57L1110.98 369.895C1110.98 369.895 1131.24 343.759 1142.6 301.812C1142.88 300.836 1143.16 299.861 1143.45 298.844C1149.65 277.83 1162.56 251.409 1169.36 227.55C1170.44 223.729 1171.43 220.152 1172.27 216.778C1172.55 215.681 1172.83 214.624 1173.07 213.567L1165.85 207.226C1165.85 207.226 1144.15 247.954 1137.45 286.284C1131.63 319.574 1108.24 359.612 1102.21 369.57Z" fill="#5F9AA8"/>
<path d="M1165.12 289.861C1164.97 308.518 1165.82 351.36 1167.89 369.082H1175.67C1179.95 369.082 1182.12 369.001 1182.12 369.001C1187.38 338.15 1191.1 312.624 1193.83 290.634C1196.08 272.586 1198.04 257.1 1199.58 243.808C1201.13 230.395 1202.18 219.176 1202.56 209.706C1202.63 208.202 1202.67 206.779 1202.7 205.356C1202.74 203.934 1202.74 202.552 1202.74 201.21L1160.35 196.414C1160.8 229.054 1165.19 279.009 1165.12 289.861Z" fill="#80BDCC"/>
<path d="M1175.67 369.082C1179.95 369.082 1182.12 369.001 1182.12 369.001C1187.38 338.15 1191.1 312.624 1193.83 290.634C1196.08 272.586 1198.04 257.1 1199.58 243.808C1201.13 230.395 1202.18 219.176 1202.56 209.706L1187 220.314C1187 220.314 1196.92 224.379 1193.13 255.108C1189.34 285.837 1180.93 364.733 1175.67 369.082Z" fill="#5F9AA8"/>
<path d="M1173.67 209.38C1173.67 209.38 1176.65 221.9 1187 220.274C1197.34 218.689 1212.03 211.494 1212.03 211.494C1212.03 211.494 1207.61 195.317 1202.14 174.058C1202.07 173.855 1202.04 173.611 1201.97 173.367C1195.48 148.288 1187.56 116.339 1183.63 95.5689C1183.56 95.1217 1183.45 94.6746 1183.38 94.2681C1182.3 88.415 1181.56 83.4967 1181.28 80.0011L1172.55 60.7344C1172.55 60.7344 1159.93 93.9836 1159.22 102.357C1158.49 110.771 1173.67 209.38 1173.67 209.38Z" fill="#B64C41"/>
<path d="M1183.98 101.137L1172.51 60.7749C1172.55 60.7749 1186.96 65.6932 1194.15 69.8798C1194.15 69.8798 1198.64 76.5866 1201.41 92.0324C1201.41 92.0324 1204.35 129.143 1197.79 142.719C1197.79 142.719 1177.14 147.516 1144.08 134.346V125.566C1144.08 125.566 1180.23 127.761 1187.66 128.777L1183.98 101.137Z" fill="#FFB27D"/>
<path d="M1175.11 119.957C1175.56 133.37 1178.26 159.181 1201.93 173.408C1195.45 148.329 1187.52 116.38 1183.59 95.6094C1179.28 103.251 1174.86 112.884 1175.11 119.957Z" fill="#A53D38"/>
<path d="M1172.51 60.7749C1172.51 60.7749 1193.66 62.4821 1198.71 75.5298C1203.76 88.5775 1205.37 131.948 1198.95 144.752C1198.95 144.752 1190.12 147.678 1174.44 144.264C1174.27 144.223 1174.06 144.183 1173.85 144.142C1173.85 144.142 1168.87 129.956 1173.32 127.192C1173.32 127.192 1186.54 128.005 1185.14 122.924C1183.77 117.843 1172.51 60.7749 1172.51 60.7749Z" fill="#B64C41"/>
<path d="M1147.76 127.883C1147.76 127.883 1144.88 123.818 1144.25 119.713C1143.62 115.567 1141.73 112.519 1136.75 111.746C1131.77 110.974 1129.63 110.893 1129.66 112.519C1129.66 114.145 1133.73 125.485 1140.85 132.273C1148 139.061 1147.76 127.883 1147.76 127.883Z" fill="#FFB27D"/>
<path d="M1062.93 333.168C1062.93 333.168 1050.31 318.169 1062.14 308.617C1062.14 308.617 1070.8 303.292 1077.87 303.699C1077.87 303.699 1067.85 320.771 1071.08 322.478C1074.32 324.185 1080.87 302.642 1080.87 302.642C1080.87 302.642 1100.6 300.691 1106.91 303.78C1106.91 303.78 1090.06 317.803 1093.61 318.657C1097.17 319.511 1115.38 305.731 1115.38 305.731C1115.38 305.731 1133.72 308.902 1132.76 320.283C1131.8 331.664 1125.45 335.2 1122.69 334.875C1119.9 334.59 1103.68 328.25 1103.32 330.566C1102.96 332.883 1112.75 340.444 1119.62 340.81C1119.62 340.81 1106.67 355.32 1098.09 351.134C1089.5 346.947 1088.74 340.322 1083.39 337.802C1078.03 335.322 1073.44 335.322 1075.68 337.842C1077.91 340.362 1087.58 342.842 1090.66 348.37C1093.73 353.898 1096.49 357.597 1087.58 356.255C1078.67 354.873 1064.21 348.289 1063.57 340.688C1062.93 333.168 1062.93 333.168 1062.93 333.168Z" fill="#82B378"/>
<path d="M1123.77 320.608C1123.77 320.608 1073.92 318.657 1062.93 333.168C1062.93 333.168 1060.5 340.566 1053.03 347.354L1051.87 350.605C1051.87 350.605 1060.5 341.338 1063.61 340.769C1063.57 340.769 1058.74 322.762 1123.77 320.608Z" fill="#82B378"/>
<path d="M1052.99 347.354C1052.99 347.354 1042.28 355.402 1041.56 369.791L1043.52 369.953C1043.52 369.953 1046.96 355.076 1053.11 349.264C1059.26 343.451 1052.99 347.354 1052.99 347.354Z" fill="#82B378"/>
<path d="M1018.75 314.308C1018.75 314.308 1038.85 302.845 1029.46 287.318C1029.46 287.318 1021.95 277.766 1013.92 275.327C1013.92 275.327 1018.2 298.496 1013.92 299.065C1009.65 299.594 1010.97 272.888 1010.97 272.888C1010.97 272.888 989.794 262.523 981.486 263.336C981.486 263.336 994.628 285.977 990.314 285.448C986.039 284.92 971.3 261.995 971.3 261.995C971.3 261.995 949.569 257.89 946.094 270.978C942.619 284.066 948.251 290.611 951.447 291.424C954.682 292.236 975.294 291.952 974.775 294.716C974.256 297.439 960.315 301.789 952.525 299.35C952.525 299.35 961.114 320.893 972.378 319.795C983.643 318.698 987.118 311.625 994.108 311.056C1001.06 310.528 1006.17 312.438 1002.7 314.348C999.221 316.259 987.398 314.958 981.805 319.836C976.173 324.713 971.619 327.721 982.085 329.876C992.55 332.071 1011.32 330.689 1015.04 322.518C1018.75 314.308 1018.75 314.308 1018.75 314.308Z" fill="#A8D29F"/>
<path d="M956.001 275.002C956.001 275.002 1012.28 293.537 1018.71 314.267C1018.71 314.267 1018.44 323.534 1024.07 334.184V338.289C1024.07 338.289 1018.16 324.388 1014.96 322.478C1015 322.478 1027.58 304.471 956.001 275.002Z" fill="#82B378"/>
<path d="M1024.11 334.225C1024.11 334.225 1032.78 347.638 1027.82 363.978L1025.59 363.369C1025.59 363.369 1027.74 345.362 1023.23 336.338C1018.71 327.315 1024.11 334.225 1024.11 334.225Z" fill="#82B378"/>
<path d="M1050.71 298.496C1050.71 298.496 1024.23 283.375 1036.57 262.889C1036.57 262.889 1046.48 250.289 1057.06 247.077C1057.06 247.077 1051.39 277.644 1057.06 278.376C1062.73 279.107 1060.94 243.866 1060.94 243.866C1060.94 243.866 1088.86 230.209 1099.8 231.266C1099.8 231.266 1082.51 261.101 1088.14 260.41C1093.77 259.719 1113.22 229.477 1113.22 229.477C1113.22 229.477 1141.87 224.071 1146.46 241.346C1151.05 258.621 1143.62 267.238 1139.39 268.295C1135.15 269.393 1107.95 269.027 1108.63 272.604C1109.35 276.181 1127.73 281.953 1137.95 278.701C1137.95 278.701 1126.65 307.113 1111.79 305.65C1096.93 304.227 1092.33 294.878 1083.15 294.147C1073.96 293.415 1067.25 295.935 1071.84 298.455C1076.44 300.975 1091.97 299.268 1099.4 305.69C1106.83 312.113 1112.83 316.055 1099.04 318.941C1085.26 321.827 1060.54 320.039 1055.58 309.227C1050.71 298.496 1050.71 298.496 1050.71 298.496Z" fill="#A8D29F"/>
<path d="M1133.4 246.712C1133.4 246.712 1059.18 271.181 1050.71 298.496C1050.71 298.496 1051.07 310.731 1043.64 324.754V330.16C1043.64 330.16 1051.43 311.828 1055.66 309.308C1055.66 309.268 1039.05 285.53 1133.4 246.712Z" fill="#82B378"/>
<path d="M1043.64 324.754C1043.64 324.754 1032.22 342.435 1038.73 363.978L1041.68 363.165C1041.68 363.165 1038.81 339.468 1044.8 327.518C1050.79 315.608 1043.64 324.754 1043.64 324.754Z" fill="#82B378"/>
<path d="M1049.83 410.641C1078.51 410.641 1101.76 386.985 1101.76 357.8H997.903C997.903 386.985 1021.15 410.641 1049.83 410.641Z" fill="#F1A34F"/>
<path d="M1062.61 410.235C1060.5 410.519 1058.34 410.641 1056.18 410.641C1027.5 410.641 1004.25 386.985 1004.25 357.8H1017.16C1017.16 384.749 1036.97 406.983 1062.61 410.235Z" fill="#FFB973"/>
<path d="M1102.48 413.324H997.224C997.224 409.706 1000.1 406.82 1003.62 406.82H1096.09C1099.6 406.82 1102.48 409.706 1102.48 413.324Z" fill="#F1A34F"/>
<path d="M1102.96 357.8H996.226V359.426H1102.96V357.8Z" fill="#D86713"/>
</svg>
